<svg width="80" height="68" viewBox="0 0 80 68" fill="none" xmlns="http://www.w3.org/2000/svg">
<path d="M13.4971 45.793L17.8067 49.2453L21.9582 52.3767L21.5755 53.2513C21.2973 53.3884 20.9777 53.5006 20.6167 53.5881C20.2472 53.6692 19.8716 53.6787 19.4901 53.6168L17.0036 50.8855L14.4302 54.2754L18.3013 57.1939L17.9186 58.0685C17.6405 58.2056 17.3209 58.3178 16.9598 58.4053C16.5903 58.4864 16.2147 58.4959 15.8332 58.434L12.9684 55.2749L8.21347 51.9064L8.23914 51.3433C8.32708 51.2627 8.47055 51.1708 8.66956 51.0674C8.87501 50.9555 9.08574 50.8544 9.30173 50.7639C9.51773 50.6734 9.69723 50.6222 9.84024 50.6102L13.0222 53.1664L15.6149 49.751L11.8703 47.0892L11.896 46.5261C11.984 46.4455 12.1274 46.3536 12.3264 46.2502C12.5319 46.1383 12.7426 46.0371 12.9586 45.9467C13.1746 45.8562 13.3541 45.805 13.4971 45.793Z" fill="#686DE5"/>
<path d="M29.7634 40.5004C29.8838 40.5176 30.071 40.5963 30.3251 40.7365C30.5868 40.8693 30.7879 41.0161 30.9285 41.1769C30.7319 41.6337 30.5201 42.1052 30.2929 42.5916C30.0582 43.0703 29.8392 43.5192 29.6358 43.9381C29.44 44.3496 29.2758 44.6862 29.143 44.9479C28.8459 45.1162 28.5039 45.2612 28.117 45.3827C27.7302 45.5042 27.3442 45.5805 26.9589 45.6115C26.5662 45.6348 26.2349 45.5989 25.965 45.5037L22.7248 41.8264C22.647 41.5309 22.6113 41.1946 22.6179 40.8175C22.6247 40.4254 22.6462 40.0561 22.6824 39.7097C23.0311 39.1802 23.4053 38.7001 23.805 38.2695C24.2124 37.8315 24.6414 37.4543 25.092 37.1377C25.1981 37.1094 25.3717 37.1049 25.6128 37.1242C25.8541 37.1283 26.0953 37.1401 26.3363 37.1594C26.5774 37.1786 26.7468 37.2004 26.8444 37.2248L28.4546 38.984C28.3959 39.3225 28.2755 39.7353 28.0936 40.2224C27.9116 40.7096 27.6914 41.2263 27.433 41.7725C27.1671 42.311 26.8865 42.8342 26.591 43.342C26.7395 43.4804 26.888 43.6112 27.0368 43.7345C27.1855 43.8578 27.3344 43.9735 27.4834 44.0817L29.7634 40.5004ZM25.8226 38.7233C25.5093 38.9517 25.2297 39.1995 24.9836 39.4668C24.7376 39.7341 24.5097 40.0432 24.2999 40.3941C24.4529 40.7061 24.6398 41.0224 24.8605 41.343C25.0813 41.6637 25.3172 41.9771 25.5684 42.2832C25.7945 41.8572 26.0064 41.3856 26.204 40.8685C26.4018 40.3364 26.5577 39.8299 26.6717 39.3491L25.8226 38.7233Z" fill="#686DE5"/>
<path d="M38.5844 33.9377C38.7296 33.9885 38.9112 34.0786 39.1292 34.2081C39.3556 34.3312 39.5513 34.4843 39.716 34.6673L38.6277 36.8111C38.2034 36.9041 37.795 36.9383 37.4024 36.9138C37.0098 36.8893 36.6703 36.8113 36.3841 36.6799L33.4917 32.288L30.8091 28.5195L30.0056 29.5266C29.8689 29.4693 29.6905 29.3834 29.4704 29.2689C29.244 29.1458 29.0483 28.9927 28.8835 28.8097L29.9719 26.6658C30.0635 26.6101 30.2276 26.5531 30.4642 26.4949C30.7094 26.4302 30.9599 26.3815 31.2158 26.3487C31.4717 26.316 31.6669 26.3091 31.8014 26.3279L34.8174 31.4682L37.6948 35.0698L38.5844 33.9377Z" fill="#686DE5"/>
<path d="M47.2051 28.3778C47.3441 28.4436 47.5152 28.5524 47.7183 28.7043C47.9305 28.8506 48.1088 29.0235 48.2534 29.2228L46.9446 31.2397C46.5129 31.2873 46.1031 31.2782 45.7153 31.2124C45.3275 31.1465 44.9982 31.0331 44.7275 30.8722L42.3152 26.1993L40.0457 22.1686L39.1402 23.0851C39.0104 23.0138 38.8421 22.9095 38.6353 22.7723C38.4231 22.626 38.2448 22.4531 38.1002 22.2537L39.409 20.2368C39.5059 20.1911 39.6752 20.1518 39.9166 20.1188C40.1672 20.0804 40.4215 20.0584 40.6794 20.0529C40.9374 20.0474 41.1322 20.0611 41.2639 20.094L43.7201 25.5242L46.2009 29.4096L47.2051 28.3778Z" fill="#686DE5"/>
<path d="M54.1824 17.9779C54.5903 17.8455 55.0117 17.8237 55.4467 17.9124C55.8816 18.0011 56.2989 18.1558 56.6986 18.3765C57.094 18.5874 57.4372 18.8387 57.7283 19.1303L59.154 22.6981C59.1444 22.8887 59.1059 23.1327 59.0384 23.4303C58.9764 23.7137 58.8927 24.0009 58.7874 24.2917C58.6918 24.5783 58.5812 24.8306 58.4556 25.0488C58.2012 25.2653 57.9528 25.4558 57.7105 25.6204C57.4725 25.7947 57.1874 25.9547 56.8553 26.1004C56.533 26.2419 56.119 26.4002 55.6135 26.5754C55.3838 26.583 55.0943 26.547 54.7449 26.4673C54.3911 26.3779 54.0532 26.2583 53.7312 26.1084C53.4049 25.9487 53.1631 25.7694 53.0059 25.5704L51.4478 21.5016C51.4402 21.272 51.4485 21.0121 51.4726 20.7219C51.5022 20.4177 51.5459 20.119 51.6036 19.8258C51.6711 19.5283 51.7572 19.2866 51.8621 19.1008C52.146 19.0578 52.413 19.0688 52.6628 19.1339C52.9084 19.1892 53.1101 19.2638 53.2677 19.3577C53.1412 19.786 53.1215 20.2722 53.2088 20.8163C53.2961 21.3604 53.4409 21.9026 53.643 22.4429C53.8451 22.9832 54.0713 23.4722 54.3216 23.9099C54.5774 24.3335 54.8098 24.6508 55.0189 24.8619C55.4634 24.7601 55.8865 24.6094 56.2882 24.4098C56.6954 24.1962 57.0582 23.9613 57.3768 23.705C57.3205 23.0192 57.1671 22.3643 56.9166 21.7404C56.6618 21.1067 56.38 20.5838 56.0711 20.1719C55.6276 20.0637 55.2369 19.9963 54.8992 19.9698C54.5669 19.9292 54.1949 19.9177 53.7832 19.9352C53.8176 19.5357 53.8631 19.2013 53.9196 18.9319C53.9816 18.6484 54.0692 18.3304 54.1824 17.9779Z" fill="#686DE5"/>
<path d="M64.7612 11.1732L65.5063 10.4084C66.2771 10.4633 67.0098 10.7513 67.7044 11.2723L68.0922 15.4404L68.8641 17.8821L68.5071 18.3183C68.2067 18.3162 67.9099 18.2687 67.6166 18.1758C67.3306 18.0697 67.0996 17.981 66.9235 17.9097L66.4512 15.6979L64.7612 11.1732ZM68.9739 21.6642C68.6369 21.6505 68.3107 21.5782 67.9953 21.4472C67.6769 21.306 67.4193 21.1251 67.2223 20.9044C67.1954 20.7345 67.2124 20.5242 67.2732 20.2735C67.334 20.0228 67.4264 19.7851 67.5503 19.5606C67.6712 19.3258 67.8048 19.154 67.951 19.0452C68.178 19.024 68.4096 19.057 68.6458 19.1443C68.8789 19.2213 69.0924 19.3261 69.2862 19.4589C69.4873 19.5785 69.6357 19.7077 69.7313 19.8466C69.7641 20.037 69.7435 20.2539 69.6694 20.4973C69.5954 20.7408 69.495 20.9696 69.3681 21.1839C69.2486 21.385 69.1172 21.5451 68.9739 21.6642Z" fill="#686DE5"/>
</svg>
