<svg width="25" height="548" viewBox="0 0 25 548" fill="none" xmlns="http://www.w3.org/2000/svg">
<line x1="12" y1="351" x2="12" y2="1" stroke="#8E8686" stroke-opacity="0.8" stroke-width="2" stroke-linecap="round"/>
<line opacity="0.8" x1="12" y1="431" x2="12" y2="372" stroke="#8E8686" stroke-width="2" stroke-linecap="round"/>
<path d="M18.612 542.732C18.612 543.468 18.484 544.129 18.228 544.716C17.9613 545.292 17.5987 545.745 17.14 546.076C16.6707 546.407 16.132 546.577 15.524 546.588V545.036C16.0467 544.983 16.4893 544.769 16.852 544.396C17.204 544.012 17.38 543.457 17.38 542.732C17.38 542.039 17.2093 541.495 16.868 541.1C16.516 540.695 16.068 540.492 15.524 540.492C15.0973 540.492 14.7507 540.609 14.484 540.844C14.2173 541.079 14.0147 541.372 13.876 541.724C13.7373 542.076 13.588 542.551 13.428 543.148C13.236 543.884 13.044 544.476 12.852 544.924C12.66 545.361 12.3613 545.74 11.956 546.06C11.54 546.369 10.9853 546.524 10.292 546.524C9.684 546.524 9.14533 546.369 8.676 546.06C8.20667 545.751 7.844 545.319 7.588 544.764C7.332 544.199 7.204 543.553 7.204 542.828C7.204 541.783 7.46533 540.929 7.988 540.268C8.51067 539.596 9.204 539.217 10.068 539.132V540.732C9.64133 540.785 9.268 541.009 8.948 541.404C8.61733 541.799 8.452 542.321 8.452 542.972C8.452 543.58 8.612 544.076 8.932 544.46C9.24133 544.844 9.67867 545.036 10.244 545.036C10.6493 545.036 10.98 544.924 11.236 544.7C11.492 544.465 11.6893 544.183 11.828 543.852C11.956 543.511 12.1053 543.036 12.276 542.428C12.4787 541.692 12.6813 541.1 12.884 540.652C13.076 540.204 13.38 539.82 13.796 539.5C14.2013 539.18 14.756 539.02 15.46 539.02C16.004 539.02 16.516 539.164 16.996 539.452C17.476 539.74 17.8653 540.167 18.164 540.732C18.4627 541.297 18.612 541.964 18.612 542.732ZM14.1 537.421C13.1933 537.421 12.404 537.24 11.732 536.877C11.0493 536.515 10.5213 536.013 10.148 535.373C9.77467 534.723 9.588 533.981 9.588 533.149C9.588 532.072 9.84933 531.187 10.372 530.493C10.8947 529.789 11.62 529.325 12.548 529.101V530.669C12.0147 530.819 11.5933 531.112 11.284 531.549C10.9747 531.976 10.82 532.509 10.82 533.149C10.82 533.981 11.108 534.653 11.684 535.165C12.2493 535.677 13.0547 535.933 14.1 535.933C15.156 535.933 15.972 535.677 16.548 535.165C17.124 534.653 17.412 533.981 17.412 533.149C17.412 532.509 17.2627 531.976 16.964 531.549C16.6653 531.123 16.2387 530.829 15.684 530.669V529.101C16.58 529.336 17.3 529.805 17.844 530.509C18.3773 531.213 18.644 532.093 18.644 533.149C18.644 533.981 18.4573 534.723 18.084 535.373C17.7107 536.013 17.1827 536.515 16.5 536.877C15.8173 537.24 15.0173 537.421 14.1 537.421ZM11.156 525.703C10.6547 525.447 10.2653 525.084 9.988 524.615C9.71067 524.135 9.572 523.553 9.572 522.871H11.076V523.255C11.076 524.887 11.9613 525.703 13.732 525.703H18.5V527.159H9.732V525.703H11.156ZM18.644 517.366C18.644 518.187 18.4573 518.934 18.084 519.606C17.7107 520.267 17.1827 520.79 16.5 521.174C15.8067 521.547 15.0067 521.734 14.1 521.734C13.204 521.734 12.4147 521.542 11.732 521.158C11.0387 520.763 10.5107 520.23 10.148 519.558C9.77467 518.886 9.588 518.134 9.588 517.302C9.588 516.47 9.77467 515.718 10.148 515.046C10.5107 514.374 11.0333 513.846 11.716 513.462C12.3987 513.067 13.1933 512.87 14.1 512.87C15.0067 512.87 15.8067 513.073 16.5 513.478C17.1827 513.873 17.7107 514.411 18.084 515.094C18.4573 515.777 18.644 516.534 18.644 517.366ZM17.364 517.366C17.364 516.843 17.2413 516.353 16.996 515.894C16.7507 515.435 16.3827 515.067 15.892 514.79C15.4013 514.502 14.804 514.358 14.1 514.358C13.396 514.358 12.7987 514.497 12.308 514.774C11.8173 515.051 11.4547 515.414 11.22 515.862C10.9747 516.31 10.852 516.795 10.852 517.318C10.852 517.851 10.9747 518.342 11.22 518.79C11.4547 519.227 11.8173 519.579 12.308 519.846C12.7987 520.113 13.396 520.246 14.1 520.246C14.8147 520.246 15.4173 520.118 15.908 519.862C16.3987 519.595 16.7667 519.243 17.012 518.806C17.2467 518.369 17.364 517.889 17.364 517.366ZM6.66 509.499H18.5V510.955H6.66V509.499ZM6.66 505.562H18.5V507.018H6.66V505.562ZM7.348 495.343C7.348 494.127 7.57733 493.076 8.036 492.191C8.484 491.295 9.12933 490.612 9.972 490.143C10.8147 489.663 11.8067 489.423 12.948 489.423C14.0893 489.423 15.0813 489.663 15.924 490.143C16.756 490.612 17.396 491.295 17.844 492.191C18.2813 493.076 18.5 494.127 18.5 495.343V498.815H7.348L7.348 495.343ZM17.3 495.343C17.3 493.903 16.9213 492.804 16.164 492.047C15.396 491.29 14.324 490.911 12.948 490.911C11.5613 490.911 10.4787 491.295 9.7 492.063C8.92133 492.82 8.532 493.914 8.532 495.343V497.359H17.3V495.343ZM18.644 483.678C18.644 484.5 18.4573 485.246 18.084 485.918C17.7107 486.58 17.1827 487.102 16.5 487.486C15.8067 487.86 15.0067 488.046 14.1 488.046C13.204 488.046 12.4147 487.854 11.732 487.47C11.0387 487.076 10.5107 486.542 10.148 485.87C9.77467 485.198 9.588 484.446 9.588 483.614C9.588 482.782 9.77467 482.03 10.148 481.358C10.5107 480.686 11.0333 480.158 11.716 479.774C12.3987 479.38 13.1933 479.182 14.1 479.182C15.0067 479.182 15.8067 479.385 16.5 479.79C17.1827 480.185 17.7107 480.724 18.084 481.406C18.4573 482.089 18.644 482.846 18.644 483.678ZM17.364 483.678C17.364 483.156 17.2413 482.665 16.996 482.206C16.7507 481.748 16.3827 481.38 15.892 481.102C15.4013 480.814 14.804 480.67 14.1 480.67C13.396 480.67 12.7987 480.809 12.308 481.086C11.8173 481.364 11.4547 481.726 11.22 482.174C10.9747 482.622 10.852 483.108 10.852 483.63C10.852 484.164 10.9747 484.654 11.22 485.102C11.4547 485.54 11.8173 485.892 12.308 486.158C12.7987 486.425 13.396 486.558 14.1 486.558C14.8147 486.558 15.4173 486.43 15.908 486.174C16.3987 485.908 16.7667 485.556 17.012 485.118C17.2467 484.681 17.364 484.201 17.364 483.678ZM9.732 465.588L18.5 468.324V469.828L11.54 471.94L18.5 474.052V475.556L9.732 478.308V476.82L17.092 474.804L9.732 472.628V471.14L17.108 469.012L9.732 467.028V465.588ZM9.572 459.871C9.572 458.804 9.89733 457.94 10.548 457.279C11.188 456.618 12.116 456.287 13.332 456.287H18.5V457.727H13.54C12.6653 457.727 11.9987 457.946 11.54 458.383C11.0707 458.82 10.836 459.418 10.836 460.175C10.836 460.943 11.076 461.556 11.556 462.015C12.036 462.463 12.7347 462.687 13.652 462.687H18.5V464.143H9.732V462.687H10.98C10.532 462.399 10.1853 462.01 9.94 461.519C9.69467 461.018 9.572 460.468 9.572 459.871Z" fill="black"/>
</svg>
